
<svg width="127" height="50" viewBox="-10 -10 127 60" fill="#535050" xmlns="http://www.w3.org/2000/svg">
<path stroke="black" stroke-width="0.5" fill-rule="evenodd" clip-rule="evenodd" d="M13.8136 23.9127C13.0313 24.8433 12.0351 25.3088 10.8261 25.3088C9.57677 25.3088 8.59108 24.807 7.86812 23.8037C7.14516 22.8005 6.78339 21.5331 6.78339 20.0013C6.78339 18.4043 7.14516 17.1102 7.86812 16.1197C8.59108 15.1298 9.57677 14.6348 10.8261 14.6348C12.1141 14.6348 13.1298 15.1166 13.8727 16.0803C14.6149 17.0443 14.9868 18.3643 14.9868 20.0409C14.9868 21.6916 14.5954 22.9818 13.8136 23.9127V23.9127ZM14.9474 9.56488V12.1196C13.4091 10.2318 11.4106 9.2876 8.95242 9.2876C7.25678 9.2876 5.71869 9.7402 4.33835 10.6443C2.95801 11.5487 1.88991 12.8126 1.13387 14.4366C0.378021 16.0606 0 17.9021 0 19.9618C0 22.061 0.355076 23.9223 1.06484 25.5463C1.77481 27.1703 2.78363 28.4344 4.09188 29.3388C5.39975 30.2433 6.90208 30.6951 8.59792 30.6951C10.6483 30.6951 12.7651 29.7248 14.9474 27.784V28.9129C14.9474 30.3783 14.7994 31.5431 14.5034 32.4082C14.2076 33.2729 13.6818 33.9133 12.9258 34.329C12.3393 34.6518 11.5628 34.8477 10.6008 34.9199V34.9262H1.17383V40H11.0314V39.9888C14.6839 39.9333 17.1383 39.1053 18.8517 37.4481C20.6265 35.732 21.5137 33.2429 21.5137 29.9823V14.4366H24.9448V9.56488H14.9474Z" fill="#FFFF"/>
<path stroke="black" stroke-width="0.5" fill-rule="evenodd" clip-rule="evenodd" d="M36.954 13.5059C35.7708 13.5059 34.8207 13.8494 34.1046 14.5357C33.3877 15.2222 32.9376 16.2719 32.7537 17.6844H41.3906C41.2063 16.4435 40.7036 15.4367 39.8822 14.6644C39.0605 13.8921 38.0844 13.5059 36.954 13.5059M48.0558 21.368H32.5959C32.7537 22.9655 33.3024 24.2296 34.2424 25.1604C35.182 26.0911 36.3951 26.5564 37.8806 26.5564C39.5236 26.5564 41.1275 25.7382 42.6924 24.1008L47.8191 25.7643C46.6882 27.4676 45.2884 28.7447 43.6188 29.5964C41.9493 30.4478 39.9709 30.8737 37.6832 30.8737C35.3962 30.8737 33.3749 30.4411 31.62 29.5766C29.8649 28.7119 28.5042 27.4872 27.5381 25.9029C26.5717 24.3187 26.0885 22.4572 26.0885 20.3184C26.0885 18.2063 26.5916 16.2918 27.5971 14.5755C28.6027 12.8593 29.9634 11.5157 31.6789 10.5454C33.3946 9.5751 35.2581 9.08984 37.2693 9.08984C39.4515 9.08984 41.3512 9.59487 42.9683 10.6049C44.5851 11.6148 45.8305 13.0475 46.7051 14.9023C47.5791 16.7573 48.0294 18.9124 48.0558 21.368" fill="#FFFF"/>
<path stroke="black" stroke-width="0.5" fill-rule="evenodd" clip-rule="evenodd" d="M63.5153 14.437V9.56529H59.6901V1.58447L53.1038 6.33732V9.56529H50.4813V14.437H53.1038V25.5863C53.1038 28.233 55.2403 30.3789 57.876 30.3789H59.6901H63.4742V25.5863H61.2864C60.4047 25.5863 59.6901 24.8685 59.6901 23.9832V14.437H63.5153Z" fill="#FFFF"/>
<path  fill-rule="evenodd" clip-rule="evenodd" d="M71.4543 1.07919C72.1623 0.368499 73.0078 0.0086412 73.9916 0H74.0629C75.0339 0.0086412 75.8731 0.368499 76.5814 1.07919C77.2976 1.79891 77.6558 2.65362 77.6558 3.64371C77.6558 4.70005 77.2976 5.57453 76.5814 6.26775C75.8645 6.96078 75.0136 7.30738 74.0276 7.30738C73.0283 7.30738 72.1709 6.94791 71.4543 6.228C70.7376 5.50867 70.3799 4.64724 70.3799 3.64371C70.3799 2.65362 70.7376 1.79891 71.4543 1.07919ZM67.5203 14.4365V9.56494H77.2419V25.5857H80.3179V30.3783H67.5203V25.5857H70.6754V14.4365H67.5203ZM93.4632 5.3073V0.534668H103.303V25.5859H106.695V30.3785H96.7367V27.9031C94.8437 29.7646 92.8322 30.6953 90.7023 30.6953C88.9541 30.6953 87.4095 30.2233 86.0686 29.2793C84.7274 28.3355 83.6788 27.0386 82.9234 25.3879C82.1673 23.7378 81.7893 21.9026 81.7893 19.8827C81.7893 17.7967 82.1673 15.9354 82.9234 14.2982C83.6788 12.6612 84.7473 11.384 86.1277 10.4661C87.508 9.54859 89.0463 9.08984 90.7417 9.08984C93.1737 9.08984 95.1722 10.0338 96.7367 11.9217V5.3073H93.4632ZM88.5332 19.9221C88.5332 21.5328 88.9013 22.8599 89.6377 23.9024C90.3736 24.9457 91.3794 25.467 92.6548 25.467C93.943 25.467 94.952 24.9555 95.6818 23.9323C96.4111 22.9092 96.7761 21.5856 96.7761 19.9616C96.7761 18.3378 96.4046 17.0109 95.6619 15.9813C94.9191 14.9514 93.9036 14.4364 92.6154 14.4364C91.3662 14.4364 90.3736 14.9514 89.6377 15.9813C88.9013 17.0109 88.5332 18.3248 88.5332 19.9221Z" fill="url(#paint0_linear)"/>
<defs>
<linearGradient id="paint0_linear" x1="107" y1="2.64969e-07" x2="68" y2="31" gradientUnits="userSpaceOnUse">
<stop stop-color="#F20091"/>
<stop offset="1" stop-color="#31B6FB"/>
</linearGradient>
</defs>
</svg>
