
<svg width="127" height="50" viewBox="-10 -10 127 60" fill="none" xmlns="http://www.w3.org/2000/svg">
<path fill-rule="evenodd" clip-rule="evenodd" d="M13.4647 23.3088C12.7022 24.2159 11.7312 24.6696 10.5527 24.6696C9.33489 24.6696 8.3741 24.1805 7.6694 23.2025C6.96469 22.2247 6.61206 20.9893 6.61206 19.4962C6.61206 17.9395 6.96469 16.6781 7.6694 15.7126C8.3741 14.7477 9.33489 14.2652 10.5527 14.2652C11.8082 14.2652 12.7982 14.7348 13.5223 15.6742C14.2458 16.6139 14.6083 17.9005 14.6083 19.5348C14.6083 21.1437 14.2268 22.4014 13.4647 23.3088ZM14.5699 9.32332V11.8135C13.0705 9.97339 11.1224 9.05304 8.72632 9.05304C7.0735 9.05304 5.57426 9.49422 4.22878 10.3754C2.8833 11.257 1.84218 12.489 1.10523 14.072C0.368474 15.655 0 17.45 0 19.4576C0 21.5039 0.346108 23.3182 1.03795 24.9011C1.72998 26.4841 2.71332 27.7163 3.98854 28.5979C5.26338 29.4795 6.72776 29.9199 8.38077 29.9199C10.3793 29.9199 12.4427 28.9741 14.5699 27.0823V28.1827C14.5699 29.611 14.4256 30.7465 14.1371 31.5897C13.8488 32.4325 13.3362 33.0568 12.5993 33.462C12.0277 33.7767 11.2708 33.9676 10.3331 34.038V34.0441H1.14419V38.9897H10.7528V38.9789C14.3131 38.9248 16.7054 38.1177 18.3756 36.5023C20.1056 34.8295 20.9704 32.4033 20.9704 29.2251V14.072H24.3148V9.32332H14.5699Z" fill="#2C296A"/>
<path fill-rule="evenodd" clip-rule="evenodd" d="M36.0206 13.1646C34.8673 13.1646 33.9411 13.4994 33.2431 14.1684C32.5444 14.8376 32.1057 15.8607 31.9264 17.2375H40.3452C40.1655 16.028 39.6755 15.0466 38.8748 14.2938C38.0739 13.541 37.1225 13.1646 36.0206 13.1646ZM46.842 20.8281H31.7726C31.9264 22.3853 32.4613 23.6174 33.3776 24.5247C34.2934 25.4319 35.4758 25.8855 36.9238 25.8855C38.5254 25.8855 40.0887 25.0879 41.6141 23.4918L46.6113 25.1134C45.509 26.7736 44.1446 28.0185 42.5171 28.8487C40.8898 29.6786 38.9613 30.0938 36.7315 30.0938C34.5022 30.0938 32.532 29.672 30.8214 28.8294C29.1106 27.9865 27.7843 26.7927 26.8425 25.2485C25.9005 23.7043 25.4296 21.8898 25.4296 19.805C25.4296 17.7463 25.9199 15.8801 26.9001 14.2071C27.8803 12.5343 29.2066 11.2247 30.8788 10.2788C32.5512 9.33304 34.3676 8.86005 36.328 8.86005C38.4551 8.86005 40.3068 9.35232 41.883 10.3369C43.459 11.3212 44.6729 12.7178 45.5254 14.5257C46.3774 16.3338 46.8163 18.4345 46.842 20.8281Z" fill="#2C296A"/>
<path fill-rule="evenodd" clip-rule="evenodd" d="M60.4672 14.4774V9.72872H56.7387V1.94946L50.3187 6.58228V9.72872H47.7625V14.4774H50.3187V25.3451C50.3187 27.9249 52.4013 30.0166 54.9703 30.0166H56.7387H60.4272V25.3451H58.2946C57.4352 25.3451 56.7387 24.6454 56.7387 23.7825V14.4774H60.4672Z" fill="#2C296A"/>
<path fill-rule="evenodd" clip-rule="evenodd" d="M69.6503 1.05193C70.3405 0.359192 71.1646 0.00842296 72.1236 0H72.1931C73.1395 0.00842296 73.9575 0.359192 74.6479 1.05193C75.3461 1.75347 75.6952 2.5866 75.6952 3.55168C75.6952 4.58134 75.3461 5.43374 74.6479 6.10945C73.9492 6.78497 73.1198 7.12283 72.1586 7.12283C71.1846 7.12283 70.3489 6.77243 69.6503 6.07071C68.9517 5.36954 68.603 4.52987 68.603 3.55168C68.603 2.5866 68.9517 1.75347 69.6503 1.05193ZM65.8149 14.0718V9.32336H75.2911V24.9395H78.2894V29.6111H65.8149V24.9395H68.8904V14.0718H65.8149ZM91.1027 5.17325V0.521157H100.694V24.9397H104V29.6112H94.2935V27.1983C92.4483 29.0128 90.4876 29.9201 88.4115 29.9201C86.7075 29.9201 85.2019 29.46 83.8948 28.5398C82.5875 27.6199 81.5654 26.3557 80.829 24.7467C80.0921 23.1383 79.7236 21.3494 79.7236 19.3805C79.7236 17.3472 80.0921 15.5329 80.829 13.9371C81.5654 12.3414 82.6069 11.0965 83.9524 10.2018C85.2979 9.30743 86.7973 8.86026 88.4499 8.86026C90.8205 8.86026 92.7685 9.78042 94.2935 11.6206V5.17325H91.1027ZM86.2972 19.4189C86.2972 20.9889 86.656 22.2825 87.3738 23.2987C88.0912 24.3156 89.0715 24.8238 90.3147 24.8238C91.5703 24.8238 92.5538 24.3252 93.2653 23.3279C93.9761 22.3306 94.3319 21.0404 94.3319 19.4575C94.3319 17.8747 93.9698 16.5813 93.2459 15.5777C92.5218 14.5738 91.5319 14.0718 90.2763 14.0718C89.0587 14.0718 88.0912 14.5738 87.3738 15.5777C86.656 16.5813 86.2972 17.862 86.2972 19.4189Z" fill="url(#paint0_linear)"/>
<defs>
<linearGradient id="paint0_linear" x1="104.298" y1="2.58277e-07" x2="66.2826" y2="30.2171" gradientUnits="userSpaceOnUse">
<stop stop-color="#F20091"/>
<stop offset="1" stop-color="#31B6FB"/>
</linearGradient>
</defs>
</svg>
